#N canvas 1166 73 494 398 12;
#X obj 23 21 adc~ 1;
#X obj 24 249 dac~ 1;
#X obj 77 114 +~ 1;
#X obj 77 145 *~ 0.5;
#X obj 24 192 *~;
#X text 23 330 http://write.flossmanuals.net/pure-data/amplitude-modulation/
, f 63;
#X obj 143 267 osc~ 440;
#X obj 143 295 *~ 0.08;
#X text 134 237 replace adc~ with this to get a tone instead;
#X text 148 85 low frequency sine wave;
#X text 148 114 move it to positive y;
#X text 148 143 scale it down to avoid overgain;
#X obj 77 85 osc~;
#X text 148 44 knob 1 controls LFO frequency;
#X obj 110 23 r Knob1 @hv_param;
#X obj 77 54 * 8;
#X connect 0 0 4 0;
#X connect 2 0 3 0;
#X connect 3 0 4 1;
#X connect 4 0 1 0;
#X connect 6 0 7 0;
#X connect 12 0 2 0;
#X connect 14 0 15 0;
#X connect 15 0 12 0;
